HIERARCHY
ROOT hips
{
  OFFSET 4.514983404067499e-9 10.105397940993303 1.318478203070619
  CHANNELS 6 Xposition Yposition Zposition Yrotation Xrotation Zrotation
  JOINT spine
  {
    OFFSET -3.891297943093837e-9 0.5743022203102706 0
    CHANNELS 3 Yrotation Xrotation Zrotation
    JOINT chest
    {
      OFFSET 0 1.2550312016247926 0
      CHANNELS 3 Yrotation Xrotation Zrotation
      JOINT upperChest
      {
        OFFSET 0 1.2059856050120283 0
        CHANNELS 3 Yrotation Xrotation Zrotation
        JOINT neck
        {
          OFFSET 0 1.5290392449770056 0
          CHANNELS 3 Yrotation Xrotation Zrotation
          JOINT head
          {
            OFFSET 0 0.8186276690878121 0
            CHANNELS 3 Yrotation Xrotation Zrotation
            JOINT leftEye
            {
              OFFSET 0.4540883942785781 -0.2684596961258452 0.6133497327236779
              CHANNELS 3 Yrotation Xrotation Zrotation
              End Site
              {
                OFFSET 0.4540883942785781 -0.2684596961258452 0.6133497327236779
              }
            }
            JOINT rightEye
            {
              OFFSET -0.4540889229417456 -0.26846010916843954 0.6133525398671689
              CHANNELS 3 Yrotation Xrotation Zrotation
              End Site
              {
                OFFSET -0.4540889229417456 -0.26846010916843954 0.6133525398671689
              }
            }
          }
        }
        JOINT leftShoulder
        {
          OFFSET 1.1700010731725468 -0.4176065950681176 0
          CHANNELS 3 Yrotation Xrotation Zrotation
          JOINT leftUpperArm
          {
            OFFSET 1.1803911524554955 0 0
            CHANNELS 3 Yrotation Xrotation Zrotation
            JOINT leftLowerArm
            {
              OFFSET 2.4406171707858904 0 0
              CHANNELS 3 Yrotation Xrotation Zrotation
              JOINT leftHand
              {
                OFFSET 2.3832177068873874 0 0
                CHANNELS 3 Yrotation Xrotation Zrotation
                JOINT leftIndexProximal
                {
                  OFFSET 0.7310175006235151 0.08192774217833776 0.20404791572985242
                  CHANNELS 3 Yrotation Xrotation Zrotation
                  JOINT leftIndexIntermediate
                  {
                    OFFSET 0.3688845439429529 -0.010662034455094949 -0.014226011560394963
                    CHANNELS 3 Yrotation Xrotation Zrotation
                    JOINT leftIndexDistal
                    {
                      OFFSET 0.2271119941018298 -0.007897656478952575 -0.007580683836364496
                      CHANNELS 3 Yrotation Xrotation Zrotation
                      End Site
                      {
                        OFFSET 0.2271119941018298 -0.007897656478952575 -0.007580683836364496
                      }
                    }
                  }
                }
                JOINT leftLittleProximal
                {
                  OFFSET 0.678269929308182 0.08192620621401336 -0.323876516389586
                  CHANNELS 3 Yrotation Xrotation Zrotation
                  JOINT leftLittleIntermediate
                  {
                    OFFSET 0.34904545821382604 -0.0000017106393073174075 8.629360392919949e-9
                    CHANNELS 3 Yrotation Xrotation Zrotation
                    JOINT leftLittleDistal
                    {
                      OFFSET 0.2011060672849896 0.0031247840072243793 0.0038660318003989197
                      CHANNELS 3 Yrotation Xrotation Zrotation
                      End Site
                      {
                        OFFSET 0.2011060672849896 0.0031247840072243793 0.0038660318003989197
                      }
                    }
                  }
                }
                JOINT leftMiddleProximal
                {
                  OFFSET 0.7368181082522638 0.0819260272939426 0.02272335773438093
                  CHANNELS 3 Yrotation Xrotation Zrotation
                  JOINT leftMiddleIntermediate
                  {
                    OFFSET 0.41136739116025356 -0.0000015892429323649537 5.27860346960507e-8
                    CHANNELS 3 Yrotation Xrotation Zrotation
                    JOINT leftMiddleDistal
                    {
                      OFFSET 0.25378150303820757 -0.0000015332469289752737 1.3442958385345705e-8
                      CHANNELS 3 Yrotation Xrotation Zrotation
                      End Site
                      {
                        OFFSET 0.25378150303820757 -0.0000015332469289752737 1.3442958385345705e-8
                      }
                    }
                  }
                }
                JOINT leftRingProximal
                {
                  OFFSET 0.7284256823094712 0.08192611199801392 -0.1508405069143483
                  CHANNELS 3 Yrotation Xrotation Zrotation
                  JOINT leftRingIntermediate
                  {
                    OFFSET 0.381593741461262 -0.0000016975471202052006 6.592486757883709e-8
                    CHANNELS 3 Yrotation Xrotation Zrotation
                    JOINT leftRingDistal
                    {
                      OFFSET 0.22014536669820362 -0.0027420652959939673 -0.005037497035641991
                      CHANNELS 3 Yrotation Xrotation Zrotation
                      End Site
                      {
                        OFFSET 0.22014536669820362 -0.0027420652959939673 -0.005037497035641991
                      }
                    }
                  }
                }
                JOINT leftThumbProximal
                {
                  OFFSET 0.10842212958334652 -0.16573713992498873 -0.07779936144556289
                  CHANNELS 3 Yrotation Xrotation Zrotation
                  JOINT leftThumbIntermediate
                  {
                    OFFSET 0.40720553822379024 -0.01751267955631075 0.31852684427382305
                    CHANNELS 3 Yrotation Xrotation Zrotation
                    JOINT leftThumbDistal
                    {
                      OFFSET 0.23412859218032667 -0.01859690713588802 0.2146635043319005
                      CHANNELS 3 Yrotation Xrotation Zrotation
                      End Site
                      {
                        OFFSET 0.23412859218032667 -0.01859690713588802 0.2146635043319005
                      }
                    }
                  }
                }
              }
            }
          }
        }
        JOINT rightShoulder
        {
          OFFSET -1.1700037144859516 -0.41760703856471126 0
          CHANNELS 3 Yrotation Xrotation Zrotation
          JOINT rightUpperArm
          {
            OFFSET -1.1803910289368023 0 0
            CHANNELS 3 Yrotation Xrotation Zrotation
            JOINT rightLowerArm
            {
              OFFSET -2.440617418222133 0 0
              CHANNELS 3 Yrotation Xrotation Zrotation
              JOINT rightHand
              {
                OFFSET -2.3832181162662343 0 0
                CHANNELS 3 Yrotation Xrotation Zrotation
                JOINT rightIndexProximal
                {
                  OFFSET -0.7310168852843362 0.08192787643494381 0.20404785424302163
                  CHANNELS 3 Yrotation Xrotation Zrotation
                  JOINT rightIndexIntermediate
                  {
                    OFFSET -0.3688846010723953 -0.01066191355993129 -0.014226020535245201
                    CHANNELS 3 Yrotation Xrotation Zrotation
                    JOINT rightIndexDistal
                    {
                      OFFSET -0.22711216276130997 -0.007898902439410271 -0.007580718044857868
                      CHANNELS 3 Yrotation Xrotation Zrotation
                      End Site
                      {
                        OFFSET -0.22711216276130997 -0.007898902439410271 -0.007580718044857868
                      }
                    }
                  }
                }
                JOINT rightLittleProximal
                {
                  OFFSET -0.6782685897119165 0.08192501740206293 -0.3238766118101876
                  CHANNELS 3 Yrotation Xrotation Zrotation
                  JOINT rightLittleIntermediate
                  {
                    OFFSET -0.34904682243945895 -2.664019085329983e-7 3.792712677253007e-8
                    CHANNELS 3 Yrotation Xrotation Zrotation
                    JOINT rightLittleDistal
                    {
                      OFFSET -0.20110609302945537 0.0031260842677420797 0.0038661724369087186
                      CHANNELS 3 Yrotation Xrotation Zrotation
                      End Site
                      {
                        OFFSET -0.20110609302945537 0.0031260842677420797 0.0038661724369087186
                      }
                    }
                  }
                }
                JOINT rightMiddleProximal
                {
                  OFFSET -0.7368168209984411 0.08192485183145659 0.022723294831187846
                  CHANNELS 3 Yrotation Xrotation Zrotation
                  JOINT rightMiddleIntermediate
                  {
                    OFFSET -0.4113687575187084 -9.03141548214137e-8 4.759541079313312e-8
                    CHANNELS 3 Yrotation Xrotation Zrotation
                    JOINT rightMiddleDistal
                    {
                      OFFSET -0.2537822083525749 -9.554208624251714e-8 -1.6364827826187422e-9
                      CHANNELS 3 Yrotation Xrotation Zrotation
                      End Site
                      {
                        OFFSET -0.2537822083525749 -9.554208624251714e-8 -1.6364827826187422e-9
                      }
                    }
                  }
                }
                JOINT rightRingProximal
                {
                  OFFSET -0.7284243957721679 0.08192492753028224 -0.15084062217729294
                  CHANNELS 3 Yrotation Xrotation Zrotation
                  JOINT rightRingIntermediate
                  {
                    OFFSET -0.381595106800805 -2.5662436442530634e-7 2.929475539925619e-8
                    CHANNELS 3 Yrotation Xrotation Zrotation
                    JOINT rightRingDistal
                    {
                      OFFSET -0.22014544912608125 -0.002738002524970362 -0.0050375115645966
                      CHANNELS 3 Yrotation Xrotation Zrotation
                      End Site
                      {
                        OFFSET -0.22014544912608125 -0.002738002524970362 -0.0050375115645966
                      }
                    }
                  }
                }
                JOINT rightThumbProximal
                {
                  OFFSET -0.10842026863657162 -0.16573778435706465 -0.07779917642461898
                  CHANNELS 3 Yrotation Xrotation Zrotation
                  JOINT rightThumbIntermediate
                  {
                    OFFSET -0.40720600760521597 -0.017512298079938038 0.3185267362029824
                    CHANNELS 3 Yrotation Xrotation Zrotation
                    JOINT rightThumbDistal
                    {
                      OFFSET -0.2341289751103648 -0.018594162598156494 0.21466399510514025
                      CHANNELS 3 Yrotation Xrotation Zrotation
                      End Site
                      {
                        OFFSET -0.2341289751103648 -0.018594162598156494 0.21466399510514025
                      }
                    }
                  }
                }
              }
            }
          }
        }
      }
    }
  }
  JOINT leftUpperLeg
  {
    OFFSET -0.8565189721517369 0.4427277044191169 0
    CHANNELS 3 Yrotation Xrotation Zrotation
    JOINT leftLowerLeg
    {
      OFFSET 0 -3.918486704769693 0
      CHANNELS 3 Yrotation Xrotation Zrotation
      JOINT leftFoot
      {
        OFFSET 6.174701361744139e-7 -0.055233446196002234 4.612027801972084
        CHANNELS 3 Yrotation Xrotation Zrotation
        JOINT leftToes
        {
          OFFSET -3.4372540951010944e-7 -0.705284859504459 1.2256624571888697
          CHANNELS 3 Yrotation Xrotation Zrotation
          End Site
          {
            OFFSET -3.4372540951010944e-7 -0.705284859504459 1.2256624571888697
          }
        }
      }
    }
  }
  JOINT rightUpperLeg
  {
    OFFSET 0.8565189732197466 0.44272769569168136 0
    CHANNELS 3 Yrotation Xrotation Zrotation
    JOINT rightLowerLeg
    {
      OFFSET 0 -3.918486692649319 0
      CHANNELS 3 Yrotation Xrotation Zrotation
      JOINT rightFoot
      {
        OFFSET 6.995136552362391e-7 -0.05523244834012664 4.612028499942008
        CHANNELS 3 Yrotation Xrotation Zrotation
        JOINT rightToes
        {
          OFFSET -4.2566694985479714e-7 -0.7052846587611067 1.22566236096697
          CHANNELS 3 Yrotation Xrotation Zrotation
          End Site
          {
            OFFSET -4.2566694985479714e-7 -0.7052846587611067 1.22566236096697
          }
        }
      }
    }
  }
}
MOTION
Frames: 4
Frame Time: 0.03333333333333333
-0.014477360993623734 -0.46714568269252155 0.3561326563358307 -2.0499023319828282 -2.5158441098178916 -1.1271976832183122 0.06138462922301669 0.29505411037394114 0.6948715730898181 0.2613223391055999 1.312064771715161 2.245301007610714 0 0 0 0.32179998454253544 0.9357873381233252 -0.3939204986800798 0.5760445266271514 -10.071571619858926 1.9081384757783206 0 0 0 0 0 0 4.977316012841166 0.30426085105305434 -5.9139939130518515 -41.71390148681715 9.885642380947882 -74.89617146801483 -19.50354107686596 0.04247510938939865 0.24711961792063306 4.922452583756356 -25.618293959531535 0.1942906078551187 -2.0715750754036053 -3.765164281783921 -41.12838993832874 2.2838046561218555 0.4385148855726003 -21.73770425005128 -0.0000010864041992080762 0.0000027452791326431423 0.00006318407001682319 5.178521697585382 2.344555120124326 -36.97487201538245 -2.0139728141196502 0.35069008836596866 -19.870153857476502 0.19066829875977062 0.0029457660832512217 -1.77235235979675 0.10686277464019238 -1.2732423410962905 -35.003582815464505 2.9377487008998084 0.7447160136775395 -28.44555960682775 0.2958967475703474 0.007091465601717766 -2.7511196264114557 3.1035036479327416 0.7923196187583453 -36.17675721605313 2.646299031905182 0.596672898670923 -25.410805522333373 0.6234963502093686 0.03161679719515447 -5.804516849887765 -2.3605126527465647 -5.455405614579679 3.162886356045769 43.889285574113615 13.23309678627857 2.2983993726953273 22.58403828239821 7.438914530078006 0.5122095472578434 -4.0790483001800295 0.4907578139916629 8.334599739692027 28.430290422108698 6.686948511800754 65.991903551991 19.265348301533354 0.04144415408970561 -0.2441802563069491 1.511091924932148 -4.279066440495015 7.457870182640061 2.9955346883489176 -5.350997303123159 44.45187650392187 -2.781307883763453 0.6548317485472337 26.492450372855497 -0.3681445949527781 0.010887267407902036 3.3863277601535096 -1.0889090386244122 -1.0064679682116997 39.87277361118639 -3.2867473439412462 0.9367164746173801 31.80733078715766 -1.226712336025437 0.12190224002570695 11.350461127828774 -1.2133122690150493 -0.4461443541971697 33.62717306460643 -3.4715162420173074 1.0558416912769388 33.82504337186401 -0.886881213538489 0.06341387042907384 8.180488077815223 -6.037459156837484 2.7838361182864264 33.982905434160166 -2.5436758390532836 0.5425979110597666 24.078930609575195 -0.6608784215509431 0.035146921703435405 6.086710122255563 -2.322196778742892 -11.545073606393627 -6.738582738156641 -10.953029178157491 5.404099244629022 -1.875322937699868 7.953698832840086 -3.9515806243508758 -3.2927650510075206 14.865189807970008 -11.192795633834981 10.551386046259932 9.588769430482001 29.036662623790825 6.907748705470134 2.0305813577158482 -14.111523623976963 -13.697860682864555 -0.000003153002630368806 -0.003980488676408575 -0.000004228490148132597 -14.015732319554605 -11.162591616262466 -7.572514375218384 -6.084609529394383 29.747618407918527 -3.434707075426652 -2.175217301158157 -14.692284413134404 10.5133182936957 -0.000006109369019666797 -0.000775072276714907 -0.0000016287699910419515
-0.014311768114566803 -0.4671704782247481 0.3540307283401489 -2.095753202728804 -2.520563846014621 -1.114811759995728 0.05378517455281144 0.3035979131701637 0.6824839323185992 0.23379660417168865 1.3384250405908342 2.2134247090531702 0 0 0 0.33770319874113985 0.9217532975218713 -0.3870620390247031 0.6629976732158848 -10.065798279002948 1.9011486001105218 0 0 0 0 0 0 4.973316623193874 0.3034433512910503 -5.901010846419136 -41.561396284640935 9.815652069715767 -74.89332503421001 -19.39466627378473 0.04200295575945089 0.24578315128189854 5.052253929943316 -25.434848816966458 0.09454443615374716 -2.061475739502858 -3.7595779538704637 -41.145636313043326 2.2627324281803647 0.4301745580532472 -21.52720744841628 -0.00001632258301283237 -0.000007083309619560363 0.00007145091156355384 5.176626976883096 2.34266477821752 -36.96344085605563 -2.013352198953586 0.3509138346158958 -19.87635864343749 0.1916756640749042 0.002979856164424036 -1.7817101668728355 0.1077939857642842 -1.2715889208884266 -34.992012083071785 2.9379500424469573 0.7448301088200581 -28.44775413598548 0.2931744826739048 0.006968619746042003 -2.725783258484155 3.1074614474137654 0.7953898166769294 -36.16515639676497 2.6463446070164567 0.5967219399541742 -25.411245512609977 0.6236630396646062 0.031628326476188164 -5.806148130633473 -2.419971002749276 -5.508423261998959 3.0708186894649123 43.91009309934279 13.23909245883487 2.3021470137283018 22.592745214051043 7.442765891506826 0.5124492859498346 -4.0716165582681585 0.49456231664108985 8.391917520069189 28.495390947365802 6.606268923825377 65.96155466540513 19.208536925720335 0.04121219440184608 -0.24349858954525394 1.3607456751889662 -4.198088639826215 7.62725532483103 3.00760031328667 -5.362946830170529 44.45213257189415 -2.78086624030293 0.6546179710133072 26.487921700639824 -0.36769461689210087 0.01085381432135409 3.3822652955677457 -1.069153952293434 -1.0194050875609726 39.83556605874131 -3.28701046165343 0.9368846905098375 31.809996914202827 -1.2255775232461423 0.12167624296294319 11.339854021999313 -1.2057648671212187 -0.45046271340442 33.61531305332705 -3.47210343104141 1.0562387634663721 33.831413306941634 -0.8858716951260386 0.06327798026402899 8.171106911002566 -6.0355726549734 2.783654049650758 34.00044909382401 -2.543135274125563 0.5423539343050455 24.073375225662108 -0.6609247890551827 0.035150316788339415 6.08728380842065 -2.3220936371198015 -11.544942024378326 -6.739833254352238 -10.95304582723397 5.4040958142873645 -1.8753657940042563 7.965452161880366 -3.9553748587190203 -3.2940383646688995 14.863842459725124 -11.188202080919664 10.537211736354873 9.660041674357036 29.03464907541259 6.935820283123336 2.0291321333985466 -14.100192173527478 -13.703128906073815 -0.0000076653635431536 -0.003992430668561759 -0.0000024625128601318112 -14.025508346413734 -11.197095954700053 -7.58804418628562 -6.02680361083899 29.76873537232132 -3.40080686446747 -2.1697353216395348 -14.683618883423435 10.490386454094102 0.0000014720374470046695 -0.0000027400282149751082 0.0000016886745425787564
-0.014356238767504692 -0.4665267480611739 0.3498435914516449 -2.1680624066003826 -2.5216714086957577 -1.0996711108244026 0.04785883645350448 0.3184241778103173 0.6721080684060918 0.21244264333236956 1.3853130209276179 2.187208856354824 0 0 0 0.343484707456649 0.8739351404679113 -0.37380247156761054 0.7355276932813737 -10.02230296571247 1.8035221047866306 0 0 0 0 0 0 4.96806805217961 0.30336613705432286 -5.897484862827987 -41.37136638627023 9.656646583026676 -74.87325569628692 -19.1193216580063 0.040822509998488556 0.2424319931796454 5.1590744200386975 -25.164701599475894 -0.09782735877185893 -2.0514868852988632 -3.752311246360241 -41.15332816076478 2.2817795717172715 0.43772450819305 -21.717459765317 -0.000008204856454443667 -0.000002829389486416506 0.00006825034819070505 5.169665458480267 2.336706233845876 -36.95162464059149 -2.0140107842894515 0.3506658354040692 -19.869694164205924 0.1871331276251803 0.0028351354864139013 -1.7395013076066308 0.1269769670520723 -1.2582633895855324 -34.991483179985764 2.9384085027065 0.7450782043950653 -28.45247654139643 0.2926063929889369 0.006945963895006232 -2.7204262681123415 3.109423126012906 0.796477629262711 -36.16815039189063 2.646315821323626 0.5966979796318347 -25.41089259493074 0.6223252668114185 0.03148527267799718 -5.793598421787299 -2.4255525379473406 -5.5152096967819535 3.0545415049490594 43.95494221964617 13.252049965859513 2.3103245701852053 22.591239916885936 7.442077930657974 0.5123853865774974 -4.0591767161871575 0.49433899315597424 8.38623344671773 28.606408231935514 6.453452657365752 65.96604159493633 19.16135481852953 0.04100775224653039 -0.24292105559129795 1.2365647967407007 -4.155311962471983 7.783847905282384 3.009141505186815 -5.366449839542631 44.45958566034122 -2.779334690506366 0.6538554480764619 26.472302743944663 -0.36714290846002223 0.010818412729881268 3.377089751774953 -1.0686119882407656 -1.0181907227419777 39.81896817094465 -3.286332109903519 0.9364612689228575 31.802642974505353 -1.2256988046901216 0.12169896139729983 11.341037314510581 -1.214071629244306 -0.4456966164009432 33.62928249722135 -3.47032118863342 1.0550485077084166 33.81182510876993 -0.8858735091793439 0.06327307773268002 8.171191187615673 -6.043493887569483 2.789732635693892 34.00937340441084 -2.544521824027823 0.5429691058087011 24.087505458981397 -0.6611407654921524 0.035180775835916986 6.089223699708317 -2.35497731289198 -11.527852572020862 -6.725163828506369 -10.953039933493121 5.404091097567616 -1.87535957984025 7.956472282458523 -3.9525070372526887 -3.2930831198073474 14.858266745575689 -11.179845447858371 10.513446850273152 9.76813571234465 29.001898785399426 6.981913391902403 2.0247141447045798 -14.062288897877474 -13.711488212159699 0.0000016821537439263826 -0.003998865653930698 0.000001685958094436412 -14.025474598901203 -11.241674755285388 -7.592458315043727 -5.922789540079622 29.766801694679803 -3.3577996838700956 -2.161208699852335 -14.653164273144688 10.456134006156706 0.000006131241058100285 -0.0009597711244085192 0.0000033361767284726526
-0.014313030056655407 -0.46635317933558795 0.3453919589519501 -2.213312808674186 -2.5079771373923516 -1.0930393257813305 0.04624810042784715 0.3302014002151433 0.6661828149228999 0.20679007986048045 1.4237194016284476 2.1711349248402865 0 0 0 0.3393740313419781 0.829650289331689 -0.3643387417050688 0.7437460648930061 -10.069556401732605 1.7429208559459166 0 0 0 0 0 0 4.954427462573279 0.30080944965405126 -5.8561878504968785 -41.33971499803275 9.539863275439625 -74.89854470500447 -18.956046035511356 0.04013569561941538 0.24042313239915197 5.190558489050506 -25.05048136029111 -0.23677136197151463 -2.062390014373237 -3.756011330243259 -41.1221919056141 2.2830652688102346 0.43822019163728276 -21.730342620865645 7.729335006350544e-8 0.0000038379335034668585 0.00005964393698796219 5.179655144716372 2.3427859018680994 -36.920112828609845 -2.015405295040695 0.35017293198739063 -19.855960210507032 0.1818061019889939 0.0026668914267862645 -1.6899133224652754 0.11492266836340018 -1.2646173255499433 -34.967884246333824 2.9389082820173433 0.7453481264196212 -28.457868267487406 0.29127032647867795 0.006888182845419431 -2.70803795249487 3.1056067714638154 0.793775655741212 -36.12460074506138 2.645651960334469 0.5963892170018464 -25.404128158222676 0.6190550818099373 0.031149746255004728 -5.763078794204479 -2.4758095983893353 -5.555604831410627 3.007859711363439 43.98605708133637 13.26112492947351 2.315949942533543 22.598499405699762 7.445332623547418 0.5127231964053194 -4.058807151631599 0.49834851800623914 8.44838714304555 28.746188031120262 6.5683230257452925 65.9429305426219 19.291474009361195 0.04155277346930823 -0.24447048342421177 1.4138199657372472 -4.22387476771668 7.693887898096387 3.0083082033787405 -5.3660712391514425 44.460692081206076 -2.7792117657206017 0.6537907171473442 26.47090366797534 -0.3666800173495326 0.010796981676957758 3.3728754019142597 -1.0674120055569893 -1.0200872540234294 39.826640650218394 -3.28701024853268 0.9368793537110948 31.810158024489947 -1.2278509898971943 0.12213351982680491 11.361016665042492 -1.210190109731336 -0.44905127536035394 33.64265986480476 -3.472189932249845 1.0562966164616472 33.83226970705471 -0.8870490662803974 0.06343938360249488 8.182084405538921 -6.028547795589913 2.7784123227813255 33.99715615287494 -2.54644744661174 0.543827400367227 24.106723128579794 -0.6630399213551497 0.03537673693519843 6.1068847736826894 -2.345838549461161 -11.52920665445961 -6.751910160545623 -10.953030671899883 5.404105676519684 -1.8753430801631916 7.962337267424693 -3.9544347496339878 -3.293774103820574 14.847902520744144 -11.208696956859889 10.495590739088534 9.819232199446239 28.99834163391949 7.0063104471170075 2.0214373163073174 -14.038414318248787 -13.710486416707514 -0.000010664543760685276 -0.004014025555650348 0.000005260827156866282 -14.028429414384371 -11.305147211509729 -7.594977648714668 -5.872278921136654 29.78281516609984 -3.319253145678249 -2.15177930487357 -14.627152179466139 10.421685340399561 -4.4032425954398106e-8 -0.0013507634984285361 -0.0000034148096073069124
